<mxfile host="app.diagrams.net" modified="2024-05-29T10:33:54.600Z" agent="Mozilla/5.0 (Windows NT 10.0; Win64; x64) AppleWebKit/537.36 (KHTML, like Gecko) Chrome/125.0.0.0 Safari/537.36" etag="TPdkQWKoIZm0FtJc8p0g" version="24.4.9" type="google">
  <diagram name="페이지-1" id="mbOStVBBy-ujijEdixiz">
    <mxGraphModel grid="1" page="1" gridSize="10" guides="1" tooltips="1" connect="1" arrows="1" fold="1" pageScale="1" pageWidth="827" pageHeight="1169" math="0" shadow="0">
      <root>
        <mxCell id="0" />
        <mxCell id="1" parent="0" />
        <mxCell id="on6lecFwRkimcn54lQR8-274" style="edgeStyle=orthogonalEdgeStyle;rounded=0;orthogonalLoop=1;jettySize=auto;html=1;endArrow=block;endFill=0;dashed=1;" edge="1" parent="1" source="on6lecFwRkimcn54lQR8-548" target="on6lecFwRkimcn54lQR8-285">
          <mxGeometry relative="1" as="geometry">
            <Array as="points">
              <mxPoint x="-120" y="-280" />
              <mxPoint x="-120" y="-280" />
            </Array>
          </mxGeometry>
        </mxCell>
        <mxCell id="on6lecFwRkimcn54lQR8-450" style="edgeStyle=orthogonalEdgeStyle;rounded=0;orthogonalLoop=1;jettySize=auto;html=1;endArrow=none;endFill=0;startArrow=diamondThin;startFill=1;" edge="1" parent="1" source="on6lecFwRkimcn54lQR8-548" target="on6lecFwRkimcn54lQR8-427">
          <mxGeometry relative="1" as="geometry" />
        </mxCell>
        <mxCell id="on6lecFwRkimcn54lQR8-285" value="MonoBehaviour" style="swimlane;fontStyle=2;align=center;verticalAlign=top;childLayout=stackLayout;horizontal=1;startSize=30;horizontalStack=0;resizeParent=1;resizeLast=0;collapsible=1;marginBottom=0;rounded=0;shadow=0;strokeWidth=1;" vertex="1" parent="1">
          <mxGeometry x="-200" y="-360" width="160" height="40" as="geometry">
            <mxRectangle x="230" y="140" width="160" height="26" as="alternateBounds" />
          </mxGeometry>
        </mxCell>
        <mxCell id="on6lecFwRkimcn54lQR8-287" value="FloorCollisionPositionView_CollisionFloor" style="swimlane;fontStyle=3;align=center;verticalAlign=middle;childLayout=stackLayout;horizontal=1;startSize=30;horizontalStack=0;resizeParent=1;resizeLast=0;collapsible=1;marginBottom=0;rounded=0;shadow=0;strokeWidth=1;" vertex="1" parent="1">
          <mxGeometry x="1840" y="60" width="400" height="280" as="geometry">
            <mxRectangle x="230" y="140" width="160" height="26" as="alternateBounds" />
          </mxGeometry>
        </mxCell>
        <mxCell id="on6lecFwRkimcn54lQR8-288" value="- previewSystemData : PreviewSystemData" style="text;align=left;verticalAlign=middle;spacingLeft=4;spacingRight=4;overflow=hidden;rotatable=0;points=[[0,0.5],[1,0.5]];portConstraint=eastwest;" vertex="1" parent="on6lecFwRkimcn54lQR8-287">
          <mxGeometry y="30" width="400" height="30" as="geometry" />
        </mxCell>
        <mxCell id="on6lecFwRkimcn54lQR8-289" value="- [SerializeField] collisionFloor : GameObject" style="text;align=left;verticalAlign=middle;spacingLeft=4;spacingRight=4;overflow=hidden;rotatable=0;points=[[0,0.5],[1,0.5]];portConstraint=eastwest;" vertex="1" parent="on6lecFwRkimcn54lQR8-287">
          <mxGeometry y="60" width="400" height="30" as="geometry" />
        </mxCell>
        <mxCell id="on6lecFwRkimcn54lQR8-290" value="- floorCollisionPositionObserverSubject : IObserverSubject&lt;float&gt;" style="text;align=left;verticalAlign=top;spacingLeft=4;spacingRight=4;overflow=hidden;rotatable=0;points=[[0,0.5],[1,0.5]];portConstraint=eastwest;" vertex="1" parent="on6lecFwRkimcn54lQR8-287">
          <mxGeometry y="90" width="400" height="30" as="geometry" />
        </mxCell>
        <mxCell id="on6lecFwRkimcn54lQR8-291" value="" style="line;html=1;strokeWidth=1;align=left;verticalAlign=middle;spacingTop=-1;spacingLeft=3;spacingRight=3;rotatable=0;labelPosition=right;points=[];portConstraint=eastwest;" vertex="1" parent="on6lecFwRkimcn54lQR8-287">
          <mxGeometry y="120" width="400" height="8" as="geometry" />
        </mxCell>
        <mxCell id="on6lecFwRkimcn54lQR8-292" value="- Awake () : void" style="text;align=left;verticalAlign=middle;spacingLeft=4;spacingRight=4;overflow=hidden;rotatable=0;points=[[0,0.5],[1,0.5]];portConstraint=eastwest;" vertex="1" parent="on6lecFwRkimcn54lQR8-287">
          <mxGeometry y="128" width="400" height="30" as="geometry" />
        </mxCell>
        <mxCell id="on6lecFwRkimcn54lQR8-293" value="- OnEnable () : void" style="text;align=left;verticalAlign=middle;spacingLeft=4;spacingRight=4;overflow=hidden;rotatable=0;points=[[0,0.5],[1,0.5]];portConstraint=eastwest;" vertex="1" parent="on6lecFwRkimcn54lQR8-287">
          <mxGeometry y="158" width="400" height="30" as="geometry" />
        </mxCell>
        <mxCell id="on6lecFwRkimcn54lQR8-294" value="- OnDisable () : void" style="text;align=left;verticalAlign=middle;spacingLeft=4;spacingRight=4;overflow=hidden;rotatable=0;points=[[0,0.5],[1,0.5]];portConstraint=eastwest;" vertex="1" parent="on6lecFwRkimcn54lQR8-287">
          <mxGeometry y="188" width="400" height="30" as="geometry" />
        </mxCell>
        <mxCell id="on6lecFwRkimcn54lQR8-295" value="+ UpdateObserverData (observerType : ObserverType) : void" style="text;align=left;verticalAlign=middle;spacingLeft=4;spacingRight=4;overflow=hidden;rotatable=0;points=[[0,0.5],[1,0.5]];portConstraint=eastwest;" vertex="1" parent="on6lecFwRkimcn54lQR8-287">
          <mxGeometry y="218" width="400" height="30" as="geometry" />
        </mxCell>
        <mxCell id="on6lecFwRkimcn54lQR8-296" value="+ UpdateCollisionFloorByFloorCollisionPosition () : void" style="text;align=left;verticalAlign=middle;spacingLeft=4;spacingRight=4;overflow=hidden;rotatable=0;points=[[0,0.5],[1,0.5]];portConstraint=eastwest;" vertex="1" parent="on6lecFwRkimcn54lQR8-287">
          <mxGeometry y="248" width="400" height="30" as="geometry" />
        </mxCell>
        <mxCell id="on6lecFwRkimcn54lQR8-299" style="edgeStyle=orthogonalEdgeStyle;rounded=0;orthogonalLoop=1;jettySize=auto;html=1;endArrow=none;endFill=0;startArrow=diamondThin;startFill=1;" edge="1" parent="1" source="on6lecFwRkimcn54lQR8-300" target="on6lecFwRkimcn54lQR8-548">
          <mxGeometry relative="1" as="geometry">
            <Array as="points" />
            <mxPoint x="-79" y="-110" as="targetPoint" />
          </mxGeometry>
        </mxCell>
        <mxCell id="on6lecFwRkimcn54lQR8-300" value="Actor" style="shape=umlActor;verticalLabelPosition=bottom;verticalAlign=top;html=1;outlineConnect=0;" vertex="1" parent="1">
          <mxGeometry x="-400" y="-120" width="80" height="160" as="geometry" />
        </mxCell>
        <mxCell id="on6lecFwRkimcn54lQR8-343" value="" style="group" connectable="0" vertex="1" parent="1">
          <mxGeometry x="2800" y="-300" width="640" height="435" as="geometry" />
        </mxCell>
        <mxCell id="on6lecFwRkimcn54lQR8-344" value="&lt;span style=&quot;font-size: 20px; text-wrap: nowrap;&quot;&gt;&lt;i&gt;Public Function&lt;/i&gt;&lt;/span&gt;" style="shape=umlFrame;whiteSpace=wrap;html=1;pointerEvents=0;width=160;height=40;" vertex="1" parent="on6lecFwRkimcn54lQR8-343">
          <mxGeometry y="75" width="640" height="360" as="geometry" />
        </mxCell>
        <mxCell id="on6lecFwRkimcn54lQR8-345" style="edgeStyle=orthogonalEdgeStyle;rounded=0;orthogonalLoop=1;jettySize=auto;html=1;endArrow=block;endFill=0;" edge="1" parent="on6lecFwRkimcn54lQR8-343" source="on6lecFwRkimcn54lQR8-344" target="on6lecFwRkimcn54lQR8-355">
          <mxGeometry relative="1" as="geometry">
            <Array as="points">
              <mxPoint x="100" y="60" />
              <mxPoint x="100" y="60" />
            </Array>
            <mxPoint x="89" y="80" as="sourcePoint" />
            <mxPoint x="-491" y="10" as="targetPoint" />
          </mxGeometry>
        </mxCell>
        <mxCell id="on6lecFwRkimcn54lQR8-346" value="PositionConverter" style="swimlane;fontStyle=3;align=center;verticalAlign=middle;childLayout=stackLayout;horizontal=1;startSize=30;horizontalStack=0;resizeParent=1;resizeLast=0;collapsible=1;marginBottom=0;rounded=0;shadow=0;strokeWidth=1;" vertex="1" parent="on6lecFwRkimcn54lQR8-343">
          <mxGeometry x="40" y="152" width="560" height="248" as="geometry">
            <mxRectangle x="230" y="140" width="160" height="26" as="alternateBounds" />
          </mxGeometry>
        </mxCell>
        <mxCell id="on6lecFwRkimcn54lQR8-347" value="- [SerializeField] canvas : Canvas" style="text;align=left;verticalAlign=middle;spacingLeft=4;spacingRight=4;overflow=hidden;rotatable=0;points=[[0,0.5],[1,0.5]];portConstraint=eastwest;" vertex="1" parent="on6lecFwRkimcn54lQR8-346">
          <mxGeometry y="30" width="560" height="30" as="geometry" />
        </mxCell>
        <mxCell id="on6lecFwRkimcn54lQR8-348" value="- [SerializeField] sceneCamera : Camera" style="text;align=left;verticalAlign=middle;spacingLeft=4;spacingRight=4;overflow=hidden;rotatable=0;points=[[0,0.5],[1,0.5]];portConstraint=eastwest;" vertex="1" parent="on6lecFwRkimcn54lQR8-346">
          <mxGeometry y="60" width="560" height="30" as="geometry" />
        </mxCell>
        <mxCell id="on6lecFwRkimcn54lQR8-349" value="- [SerializeField] grid : Grid" style="text;align=left;verticalAlign=middle;spacingLeft=4;spacingRight=4;overflow=hidden;rotatable=0;points=[[0,0.5],[1,0.5]];portConstraint=eastwest;" vertex="1" parent="on6lecFwRkimcn54lQR8-346">
          <mxGeometry y="90" width="560" height="30" as="geometry" />
        </mxCell>
        <mxCell id="on6lecFwRkimcn54lQR8-350" value="" style="line;html=1;strokeWidth=1;align=left;verticalAlign=middle;spacingTop=-1;spacingLeft=3;spacingRight=3;rotatable=0;labelPosition=right;points=[];portConstraint=eastwest;" vertex="1" parent="on6lecFwRkimcn54lQR8-346">
          <mxGeometry y="120" width="560" height="8" as="geometry" />
        </mxCell>
        <mxCell id="on6lecFwRkimcn54lQR8-351" value="+ ConvertScreenPositionToWorldPosition (screenPosition : Vector2, layerMask : LayerMask) : Vector3" style="text;align=left;verticalAlign=middle;spacingLeft=4;spacingRight=4;overflow=hidden;rotatable=0;points=[[0,0.5],[1,0.5]];portConstraint=eastwest;" vertex="1" parent="on6lecFwRkimcn54lQR8-346">
          <mxGeometry y="128" width="560" height="30" as="geometry" />
        </mxCell>
        <mxCell id="on6lecFwRkimcn54lQR8-352" value="+ ConvertWorldPositionToScreenPosition (worldPosition : Vector3) : Vector2" style="text;align=left;verticalAlign=middle;spacingLeft=4;spacingRight=4;overflow=hidden;rotatable=0;points=[[0,0.5],[1,0.5]];portConstraint=eastwest;" vertex="1" parent="on6lecFwRkimcn54lQR8-346">
          <mxGeometry y="158" width="560" height="30" as="geometry" />
        </mxCell>
        <mxCell id="on6lecFwRkimcn54lQR8-353" value="+ ConvertWorldPositionToGridCell (worldPosition : Vector3) : Vector3Int" style="text;align=left;verticalAlign=middle;spacingLeft=4;spacingRight=4;overflow=hidden;rotatable=0;points=[[0,0.5],[1,0.5]];portConstraint=eastwest;" vertex="1" parent="on6lecFwRkimcn54lQR8-346">
          <mxGeometry y="188" width="560" height="30" as="geometry" />
        </mxCell>
        <mxCell id="on6lecFwRkimcn54lQR8-354" value="+ ConvertGridCellToWorldPosition (gridCell : Vector3Int) : Vector3" style="text;align=left;verticalAlign=middle;spacingLeft=4;spacingRight=4;overflow=hidden;rotatable=0;points=[[0,0.5],[1,0.5]];portConstraint=eastwest;" vertex="1" parent="on6lecFwRkimcn54lQR8-346">
          <mxGeometry y="218" width="560" height="30" as="geometry" />
        </mxCell>
        <mxCell id="on6lecFwRkimcn54lQR8-355" value="MonoBehaviour" style="swimlane;fontStyle=2;align=center;verticalAlign=top;childLayout=stackLayout;horizontal=1;startSize=30;horizontalStack=0;resizeParent=1;resizeLast=0;collapsible=1;marginBottom=0;rounded=0;shadow=0;strokeWidth=1;" vertex="1" parent="on6lecFwRkimcn54lQR8-343">
          <mxGeometry x="40" width="120" height="40" as="geometry">
            <mxRectangle x="230" y="140" width="160" height="26" as="alternateBounds" />
          </mxGeometry>
        </mxCell>
        <mxCell id="on6lecFwRkimcn54lQR8-359" value="FloorCollisionPositionView_EditorBar" style="swimlane;fontStyle=3;align=center;verticalAlign=middle;childLayout=stackLayout;horizontal=1;startSize=30;horizontalStack=0;resizeParent=1;resizeLast=0;collapsible=1;marginBottom=0;rounded=0;shadow=0;strokeWidth=1;" vertex="1" parent="1">
          <mxGeometry x="2280" y="-340" width="400" height="340" as="geometry">
            <mxRectangle x="230" y="140" width="160" height="26" as="alternateBounds" />
          </mxGeometry>
        </mxCell>
        <mxCell id="on6lecFwRkimcn54lQR8-360" value="- [SerializeField] positionConverter : PositionConverter" style="text;align=left;verticalAlign=middle;spacingLeft=4;spacingRight=4;overflow=hidden;rotatable=0;points=[[0,0.5],[1,0.5]];portConstraint=eastwest;" vertex="1" parent="on6lecFwRkimcn54lQR8-359">
          <mxGeometry y="30" width="400" height="30" as="geometry" />
        </mxCell>
        <mxCell id="on6lecFwRkimcn54lQR8-518" value="- previewSystemData : PreviewSystemData" style="text;align=left;verticalAlign=middle;spacingLeft=4;spacingRight=4;overflow=hidden;rotatable=0;points=[[0,0.5],[1,0.5]];portConstraint=eastwest;" vertex="1" parent="on6lecFwRkimcn54lQR8-359">
          <mxGeometry y="60" width="400" height="30" as="geometry" />
        </mxCell>
        <mxCell id="on6lecFwRkimcn54lQR8-362" value="- [SerializeField] editorBar : GameObject" style="text;align=left;verticalAlign=middle;spacingLeft=4;spacingRight=4;overflow=hidden;rotatable=0;points=[[0,0.5],[1,0.5]];portConstraint=eastwest;" vertex="1" parent="on6lecFwRkimcn54lQR8-359">
          <mxGeometry y="90" width="400" height="30" as="geometry" />
        </mxCell>
        <mxCell id="on6lecFwRkimcn54lQR8-363" value="- [SerializeField] distanceOffset : float" style="text;align=left;verticalAlign=middle;spacingLeft=4;spacingRight=4;overflow=hidden;rotatable=0;points=[[0,0.5],[1,0.5]];portConstraint=eastwest;" vertex="1" parent="on6lecFwRkimcn54lQR8-359">
          <mxGeometry y="120" width="400" height="30" as="geometry" />
        </mxCell>
        <mxCell id="on6lecFwRkimcn54lQR8-364" value="- floorCollisionPositionObserverSubject : IObserverSubject&lt;float&gt;" style="text;align=left;verticalAlign=top;spacingLeft=4;spacingRight=4;overflow=hidden;rotatable=0;points=[[0,0.5],[1,0.5]];portConstraint=eastwest;" vertex="1" parent="on6lecFwRkimcn54lQR8-359">
          <mxGeometry y="150" width="400" height="30" as="geometry" />
        </mxCell>
        <mxCell id="on6lecFwRkimcn54lQR8-365" value="" style="line;html=1;strokeWidth=1;align=left;verticalAlign=middle;spacingTop=-1;spacingLeft=3;spacingRight=3;rotatable=0;labelPosition=right;points=[];portConstraint=eastwest;" vertex="1" parent="on6lecFwRkimcn54lQR8-359">
          <mxGeometry y="180" width="400" height="8" as="geometry" />
        </mxCell>
        <mxCell id="on6lecFwRkimcn54lQR8-366" value="- Awake () : void" style="text;align=left;verticalAlign=middle;spacingLeft=4;spacingRight=4;overflow=hidden;rotatable=0;points=[[0,0.5],[1,0.5]];portConstraint=eastwest;" vertex="1" parent="on6lecFwRkimcn54lQR8-359">
          <mxGeometry y="188" width="400" height="30" as="geometry" />
        </mxCell>
        <mxCell id="on6lecFwRkimcn54lQR8-367" value="- OnEnable () : void" style="text;align=left;verticalAlign=middle;spacingLeft=4;spacingRight=4;overflow=hidden;rotatable=0;points=[[0,0.5],[1,0.5]];portConstraint=eastwest;" vertex="1" parent="on6lecFwRkimcn54lQR8-359">
          <mxGeometry y="218" width="400" height="30" as="geometry" />
        </mxCell>
        <mxCell id="on6lecFwRkimcn54lQR8-368" value="- OnDisable () : void" style="text;align=left;verticalAlign=middle;spacingLeft=4;spacingRight=4;overflow=hidden;rotatable=0;points=[[0,0.5],[1,0.5]];portConstraint=eastwest;" vertex="1" parent="on6lecFwRkimcn54lQR8-359">
          <mxGeometry y="248" width="400" height="30" as="geometry" />
        </mxCell>
        <mxCell id="on6lecFwRkimcn54lQR8-369" value="+ UpdateObserverData (observerType : ObserverType) : void" style="text;align=left;verticalAlign=middle;spacingLeft=4;spacingRight=4;overflow=hidden;rotatable=0;points=[[0,0.5],[1,0.5]];portConstraint=eastwest;" vertex="1" parent="on6lecFwRkimcn54lQR8-359">
          <mxGeometry y="278" width="400" height="30" as="geometry" />
        </mxCell>
        <mxCell id="on6lecFwRkimcn54lQR8-370" value="+ UpdatePreviewObjectByFloorLayer () : void" style="text;align=left;verticalAlign=middle;spacingLeft=4;spacingRight=4;overflow=hidden;rotatable=0;points=[[0,0.5],[1,0.5]];portConstraint=eastwest;" vertex="1" parent="on6lecFwRkimcn54lQR8-359">
          <mxGeometry y="308" width="400" height="30" as="geometry" />
        </mxCell>
        <mxCell id="on6lecFwRkimcn54lQR8-374" value="FloorCollisionPositionView_PreviewIndicator" style="swimlane;fontStyle=3;align=center;verticalAlign=middle;childLayout=stackLayout;horizontal=1;startSize=30;horizontalStack=0;resizeParent=1;resizeLast=0;collapsible=1;marginBottom=0;rounded=0;shadow=0;strokeWidth=1;" vertex="1" parent="1">
          <mxGeometry x="1840" y="-339" width="400" height="338" as="geometry">
            <mxRectangle x="230" y="140" width="160" height="26" as="alternateBounds" />
          </mxGeometry>
        </mxCell>
        <mxCell id="on6lecFwRkimcn54lQR8-375" value="- [SerializeField] positionConverter : PositionConverter" style="text;align=left;verticalAlign=middle;spacingLeft=4;spacingRight=4;overflow=hidden;rotatable=0;points=[[0,0.5],[1,0.5]];portConstraint=eastwest;" vertex="1" parent="on6lecFwRkimcn54lQR8-374">
          <mxGeometry y="30" width="400" height="30" as="geometry" />
        </mxCell>
        <mxCell id="on6lecFwRkimcn54lQR8-519" value="- previewSystemData : PreviewSystemData" style="text;align=left;verticalAlign=middle;spacingLeft=4;spacingRight=4;overflow=hidden;rotatable=0;points=[[0,0.5],[1,0.5]];portConstraint=eastwest;" vertex="1" parent="on6lecFwRkimcn54lQR8-374">
          <mxGeometry y="60" width="400" height="30" as="geometry" />
        </mxCell>
        <mxCell id="on6lecFwRkimcn54lQR8-377" value="- [SerializeField] indicator : GameObject" style="text;align=left;verticalAlign=middle;spacingLeft=4;spacingRight=4;overflow=hidden;rotatable=0;points=[[0,0.5],[1,0.5]];portConstraint=eastwest;" vertex="1" parent="on6lecFwRkimcn54lQR8-374">
          <mxGeometry y="90" width="400" height="30" as="geometry" />
        </mxCell>
        <mxCell id="on6lecFwRkimcn54lQR8-378" value="- [SerializeField] pointOffset : float" style="text;align=left;verticalAlign=middle;spacingLeft=4;spacingRight=4;overflow=hidden;rotatable=0;points=[[0,0.5],[1,0.5]];portConstraint=eastwest;" vertex="1" parent="on6lecFwRkimcn54lQR8-374">
          <mxGeometry y="120" width="400" height="30" as="geometry" />
        </mxCell>
        <mxCell id="on6lecFwRkimcn54lQR8-379" value="- floorCollisionPositionObserverSubject : IObserverSubject&lt;float&gt;" style="text;align=left;verticalAlign=top;spacingLeft=4;spacingRight=4;overflow=hidden;rotatable=0;points=[[0,0.5],[1,0.5]];portConstraint=eastwest;" vertex="1" parent="on6lecFwRkimcn54lQR8-374">
          <mxGeometry y="150" width="400" height="30" as="geometry" />
        </mxCell>
        <mxCell id="on6lecFwRkimcn54lQR8-380" value="" style="line;html=1;strokeWidth=1;align=left;verticalAlign=middle;spacingTop=-1;spacingLeft=3;spacingRight=3;rotatable=0;labelPosition=right;points=[];portConstraint=eastwest;" vertex="1" parent="on6lecFwRkimcn54lQR8-374">
          <mxGeometry y="180" width="400" height="8" as="geometry" />
        </mxCell>
        <mxCell id="on6lecFwRkimcn54lQR8-381" value="- Awake () : void" style="text;align=left;verticalAlign=middle;spacingLeft=4;spacingRight=4;overflow=hidden;rotatable=0;points=[[0,0.5],[1,0.5]];portConstraint=eastwest;" vertex="1" parent="on6lecFwRkimcn54lQR8-374">
          <mxGeometry y="188" width="400" height="30" as="geometry" />
        </mxCell>
        <mxCell id="on6lecFwRkimcn54lQR8-382" value="- OnEnable () : void" style="text;align=left;verticalAlign=middle;spacingLeft=4;spacingRight=4;overflow=hidden;rotatable=0;points=[[0,0.5],[1,0.5]];portConstraint=eastwest;" vertex="1" parent="on6lecFwRkimcn54lQR8-374">
          <mxGeometry y="218" width="400" height="30" as="geometry" />
        </mxCell>
        <mxCell id="on6lecFwRkimcn54lQR8-383" value="- OnDisable () : void" style="text;align=left;verticalAlign=middle;spacingLeft=4;spacingRight=4;overflow=hidden;rotatable=0;points=[[0,0.5],[1,0.5]];portConstraint=eastwest;" vertex="1" parent="on6lecFwRkimcn54lQR8-374">
          <mxGeometry y="248" width="400" height="30" as="geometry" />
        </mxCell>
        <mxCell id="on6lecFwRkimcn54lQR8-384" value="+ UpdateObserverData (observerType : ObserverType) : void" style="text;align=left;verticalAlign=middle;spacingLeft=4;spacingRight=4;overflow=hidden;rotatable=0;points=[[0,0.5],[1,0.5]];portConstraint=eastwest;" vertex="1" parent="on6lecFwRkimcn54lQR8-374">
          <mxGeometry y="278" width="400" height="30" as="geometry" />
        </mxCell>
        <mxCell id="on6lecFwRkimcn54lQR8-385" value="+ UpdateIndicatorByFloorLayer() : void" style="text;align=left;verticalAlign=middle;spacingLeft=4;spacingRight=4;overflow=hidden;rotatable=0;points=[[0,0.5],[1,0.5]];portConstraint=eastwest;" vertex="1" parent="on6lecFwRkimcn54lQR8-374">
          <mxGeometry y="308" width="400" height="30" as="geometry" />
        </mxCell>
        <mxCell id="on6lecFwRkimcn54lQR8-389" value="FloorCollisionPositionView_PreviewObject" style="swimlane;fontStyle=3;align=center;verticalAlign=middle;childLayout=stackLayout;horizontal=1;startSize=30;horizontalStack=0;resizeParent=1;resizeLast=0;collapsible=1;marginBottom=0;rounded=0;shadow=0;strokeWidth=1;" vertex="1" parent="1">
          <mxGeometry x="2280" y="60" width="400" height="280" as="geometry">
            <mxRectangle x="230" y="140" width="160" height="26" as="alternateBounds" />
          </mxGeometry>
        </mxCell>
        <mxCell id="on6lecFwRkimcn54lQR8-390" value="- [SerializeField] positionConverter : PositionConverter" style="text;align=left;verticalAlign=middle;spacingLeft=4;spacingRight=4;overflow=hidden;rotatable=0;points=[[0,0.5],[1,0.5]];portConstraint=eastwest;" vertex="1" parent="on6lecFwRkimcn54lQR8-389">
          <mxGeometry y="30" width="400" height="30" as="geometry" />
        </mxCell>
        <mxCell id="on6lecFwRkimcn54lQR8-520" value="- previewSystemData : PreviewSystemData" style="text;align=left;verticalAlign=middle;spacingLeft=4;spacingRight=4;overflow=hidden;rotatable=0;points=[[0,0.5],[1,0.5]];portConstraint=eastwest;" vertex="1" parent="on6lecFwRkimcn54lQR8-389">
          <mxGeometry y="60" width="400" height="30" as="geometry" />
        </mxCell>
        <mxCell id="on6lecFwRkimcn54lQR8-392" value="- floorCollisionPositionObserverSubject : IObserverSubject&lt;float&gt;" style="text;align=left;verticalAlign=top;spacingLeft=4;spacingRight=4;overflow=hidden;rotatable=0;points=[[0,0.5],[1,0.5]];portConstraint=eastwest;" vertex="1" parent="on6lecFwRkimcn54lQR8-389">
          <mxGeometry y="90" width="400" height="30" as="geometry" />
        </mxCell>
        <mxCell id="on6lecFwRkimcn54lQR8-395" value="" style="line;html=1;strokeWidth=1;align=left;verticalAlign=middle;spacingTop=-1;spacingLeft=3;spacingRight=3;rotatable=0;labelPosition=right;points=[];portConstraint=eastwest;" vertex="1" parent="on6lecFwRkimcn54lQR8-389">
          <mxGeometry y="120" width="400" height="8" as="geometry" />
        </mxCell>
        <mxCell id="on6lecFwRkimcn54lQR8-396" value="- Awake () : void" style="text;align=left;verticalAlign=middle;spacingLeft=4;spacingRight=4;overflow=hidden;rotatable=0;points=[[0,0.5],[1,0.5]];portConstraint=eastwest;" vertex="1" parent="on6lecFwRkimcn54lQR8-389">
          <mxGeometry y="128" width="400" height="30" as="geometry" />
        </mxCell>
        <mxCell id="on6lecFwRkimcn54lQR8-397" value="- OnEnable () : void" style="text;align=left;verticalAlign=middle;spacingLeft=4;spacingRight=4;overflow=hidden;rotatable=0;points=[[0,0.5],[1,0.5]];portConstraint=eastwest;" vertex="1" parent="on6lecFwRkimcn54lQR8-389">
          <mxGeometry y="158" width="400" height="30" as="geometry" />
        </mxCell>
        <mxCell id="on6lecFwRkimcn54lQR8-398" value="- OnDisable () : void" style="text;align=left;verticalAlign=middle;spacingLeft=4;spacingRight=4;overflow=hidden;rotatable=0;points=[[0,0.5],[1,0.5]];portConstraint=eastwest;" vertex="1" parent="on6lecFwRkimcn54lQR8-389">
          <mxGeometry y="188" width="400" height="30" as="geometry" />
        </mxCell>
        <mxCell id="on6lecFwRkimcn54lQR8-399" value="+ UpdateObserverData (observerType : ObserverType) : void" style="text;align=left;verticalAlign=middle;spacingLeft=4;spacingRight=4;overflow=hidden;rotatable=0;points=[[0,0.5],[1,0.5]];portConstraint=eastwest;" vertex="1" parent="on6lecFwRkimcn54lQR8-389">
          <mxGeometry y="218" width="400" height="30" as="geometry" />
        </mxCell>
        <mxCell id="on6lecFwRkimcn54lQR8-400" value="+ UpdatePreviewObjectByFloorLayer () : void" style="text;align=left;verticalAlign=middle;spacingLeft=4;spacingRight=4;overflow=hidden;rotatable=0;points=[[0,0.5],[1,0.5]];portConstraint=eastwest;" vertex="1" parent="on6lecFwRkimcn54lQR8-389">
          <mxGeometry y="248" width="400" height="30" as="geometry" />
        </mxCell>
        <mxCell id="on6lecFwRkimcn54lQR8-449" value="" style="group" connectable="0" vertex="1" parent="1">
          <mxGeometry x="520" y="-400" width="1080" height="720" as="geometry" />
        </mxCell>
        <mxCell id="on6lecFwRkimcn54lQR8-411" value="PreviewSystemData" style="swimlane;fontStyle=3;align=center;verticalAlign=top;childLayout=stackLayout;horizontal=1;startSize=30;horizontalStack=0;resizeParent=1;resizeLast=0;collapsible=1;marginBottom=0;rounded=0;shadow=0;strokeWidth=1;" vertex="1" parent="on6lecFwRkimcn54lQR8-449">
          <mxGeometry x="40" y="120" width="360" height="460" as="geometry">
            <mxRectangle x="230" y="140" width="160" height="26" as="alternateBounds" />
          </mxGeometry>
        </mxCell>
        <mxCell id="on6lecFwRkimcn54lQR8-412" value="- structureCategoryType : StructureCategoryType" style="text;align=left;verticalAlign=top;spacingLeft=4;spacingRight=4;overflow=hidden;rotatable=0;points=[[0,0.5],[1,0.5]];portConstraint=eastwest;" vertex="1" parent="on6lecFwRkimcn54lQR8-411">
          <mxGeometry y="30" width="360" height="30" as="geometry" />
        </mxCell>
        <mxCell id="on6lecFwRkimcn54lQR8-413" value="- structureNumber : int" style="text;align=left;verticalAlign=top;spacingLeft=4;spacingRight=4;overflow=hidden;rotatable=0;points=[[0,0.5],[1,0.5]];portConstraint=eastwest;" vertex="1" parent="on6lecFwRkimcn54lQR8-411">
          <mxGeometry y="60" width="360" height="30" as="geometry" />
        </mxCell>
        <mxCell id="on6lecFwRkimcn54lQR8-414" value="- size : Vector2Int" style="text;align=left;verticalAlign=top;spacingLeft=4;spacingRight=4;overflow=hidden;rotatable=0;points=[[0,0.5],[1,0.5]];portConstraint=eastwest;" vertex="1" parent="on6lecFwRkimcn54lQR8-411">
          <mxGeometry y="90" width="360" height="30" as="geometry" />
        </mxCell>
        <mxCell id="on6lecFwRkimcn54lQR8-415" value="- previewStructureObject : GameObject" style="text;align=left;verticalAlign=top;spacingLeft=4;spacingRight=4;overflow=hidden;rotatable=0;points=[[0,0.5],[1,0.5]];portConstraint=eastwest;" vertex="1" parent="on6lecFwRkimcn54lQR8-411">
          <mxGeometry y="120" width="360" height="30" as="geometry" />
        </mxCell>
        <mxCell id="on6lecFwRkimcn54lQR8-416" value="- previewFloorObject : GameObject" style="text;align=left;verticalAlign=top;spacingLeft=4;spacingRight=4;overflow=hidden;rotatable=0;points=[[0,0.5],[1,0.5]];portConstraint=eastwest;" vertex="1" parent="on6lecFwRkimcn54lQR8-411">
          <mxGeometry y="150" width="360" height="30" as="geometry" />
        </mxCell>
        <mxCell id="on6lecFwRkimcn54lQR8-417" value="- previewMaterialPrefab : Material" style="text;align=left;verticalAlign=top;spacingLeft=4;spacingRight=4;overflow=hidden;rotatable=0;points=[[0,0.5],[1,0.5]];portConstraint=eastwest;" vertex="1" parent="on6lecFwRkimcn54lQR8-411">
          <mxGeometry y="180" width="360" height="30" as="geometry" />
        </mxCell>
        <mxCell id="on6lecFwRkimcn54lQR8-418" value="- previewFoliageMaterialPrefab : Material" style="text;align=left;verticalAlign=top;spacingLeft=4;spacingRight=4;overflow=hidden;rotatable=0;points=[[0,0.5],[1,0.5]];portConstraint=eastwest;" vertex="1" parent="on6lecFwRkimcn54lQR8-411">
          <mxGeometry y="210" width="360" height="30" as="geometry" />
        </mxCell>
        <mxCell id="on6lecFwRkimcn54lQR8-419" value="" style="line;html=1;strokeWidth=1;align=left;verticalAlign=middle;spacingTop=-1;spacingLeft=3;spacingRight=3;rotatable=0;labelPosition=right;points=[];portConstraint=eastwest;" vertex="1" parent="on6lecFwRkimcn54lQR8-411">
          <mxGeometry y="240" width="360" height="10" as="geometry" />
        </mxCell>
        <mxCell id="on6lecFwRkimcn54lQR8-420" value="+ StructureCategoryType{ get; set; } : StructureCategoryType" style="text;align=left;verticalAlign=top;spacingLeft=4;spacingRight=4;overflow=hidden;rotatable=0;points=[[0,0.5],[1,0.5]];portConstraint=eastwest;" vertex="1" parent="on6lecFwRkimcn54lQR8-411">
          <mxGeometry y="250" width="360" height="30" as="geometry" />
        </mxCell>
        <mxCell id="on6lecFwRkimcn54lQR8-421" value="+ StructureNumber { get; set; } : int" style="text;align=left;verticalAlign=top;spacingLeft=4;spacingRight=4;overflow=hidden;rotatable=0;points=[[0,0.5],[1,0.5]];portConstraint=eastwest;" vertex="1" parent="on6lecFwRkimcn54lQR8-411">
          <mxGeometry y="280" width="360" height="30" as="geometry" />
        </mxCell>
        <mxCell id="on6lecFwRkimcn54lQR8-422" value="+ Size { get; set; } : Vector2Int" style="text;align=left;verticalAlign=top;spacingLeft=4;spacingRight=4;overflow=hidden;rotatable=0;points=[[0,0.5],[1,0.5]];portConstraint=eastwest;" vertex="1" parent="on6lecFwRkimcn54lQR8-411">
          <mxGeometry y="310" width="360" height="30" as="geometry" />
        </mxCell>
        <mxCell id="on6lecFwRkimcn54lQR8-423" value="+ PreviewStructureObject { get; set; } : GameObject" style="text;align=left;verticalAlign=top;spacingLeft=4;spacingRight=4;overflow=hidden;rotatable=0;points=[[0,0.5],[1,0.5]];portConstraint=eastwest;" vertex="1" parent="on6lecFwRkimcn54lQR8-411">
          <mxGeometry y="340" width="360" height="30" as="geometry" />
        </mxCell>
        <mxCell id="on6lecFwRkimcn54lQR8-424" value="+ PreviewFloorObject { get; set; } : GameObject" style="text;align=left;verticalAlign=top;spacingLeft=4;spacingRight=4;overflow=hidden;rotatable=0;points=[[0,0.5],[1,0.5]];portConstraint=eastwest;" vertex="1" parent="on6lecFwRkimcn54lQR8-411">
          <mxGeometry y="370" width="360" height="30" as="geometry" />
        </mxCell>
        <mxCell id="on6lecFwRkimcn54lQR8-425" value="+ PreviewMaterialPrefab { get; set; } : Material" style="text;align=left;verticalAlign=top;spacingLeft=4;spacingRight=4;overflow=hidden;rotatable=0;points=[[0,0.5],[1,0.5]];portConstraint=eastwest;" vertex="1" parent="on6lecFwRkimcn54lQR8-411">
          <mxGeometry y="400" width="360" height="30" as="geometry" />
        </mxCell>
        <mxCell id="on6lecFwRkimcn54lQR8-426" value="+ PreviewFoliageMaterialPrefab { get; set; } : Material" style="text;align=left;verticalAlign=top;spacingLeft=4;spacingRight=4;overflow=hidden;rotatable=0;points=[[0,0.5],[1,0.5]];portConstraint=eastwest;" vertex="1" parent="on6lecFwRkimcn54lQR8-411">
          <mxGeometry y="430" width="360" height="30" as="geometry" />
        </mxCell>
        <mxCell id="on6lecFwRkimcn54lQR8-427" value="&lt;span style=&quot;font-size: 20px; text-wrap: nowrap;&quot;&gt;&lt;i&gt;PreviewSystemData&lt;/i&gt;&lt;/span&gt;" style="shape=umlFrame;whiteSpace=wrap;html=1;pointerEvents=0;width=240;height=80;fontStyle=1" vertex="1" parent="on6lecFwRkimcn54lQR8-449">
          <mxGeometry width="1080" height="720" as="geometry" />
        </mxCell>
        <mxCell id="on6lecFwRkimcn54lQR8-428" value="PreviewSystemData" style="swimlane;fontStyle=3;align=center;verticalAlign=top;childLayout=stackLayout;horizontal=1;startSize=30;horizontalStack=0;resizeParent=1;resizeLast=0;collapsible=1;marginBottom=0;rounded=0;shadow=0;strokeWidth=1;" vertex="1" parent="on6lecFwRkimcn54lQR8-449">
          <mxGeometry x="440" y="360" width="600" height="308" as="geometry">
            <mxRectangle x="230" y="140" width="160" height="26" as="alternateBounds" />
          </mxGeometry>
        </mxCell>
        <mxCell id="on6lecFwRkimcn54lQR8-429" value="- structureObjectRotationTypeObserverSubject : IObserverSubject&lt;StructureObjectRotationType&gt;" style="text;align=left;verticalAlign=top;spacingLeft=4;spacingRight=4;overflow=hidden;rotatable=0;points=[[0,0.5],[1,0.5]];portConstraint=eastwest;" vertex="1" parent="on6lecFwRkimcn54lQR8-428">
          <mxGeometry y="30" width="600" height="30" as="geometry" />
        </mxCell>
        <mxCell id="on6lecFwRkimcn54lQR8-430" value="- worldEidtorObjectPlaceableObserverSubject : IObserverSubject&lt;bool&gt;" style="text;align=left;verticalAlign=top;spacingLeft=4;spacingRight=4;overflow=hidden;rotatable=0;points=[[0,0.5],[1,0.5]];portConstraint=eastwest;" vertex="1" parent="on6lecFwRkimcn54lQR8-428">
          <mxGeometry y="60" width="600" height="30" as="geometry" />
        </mxCell>
        <mxCell id="on6lecFwRkimcn54lQR8-431" value="- previewObjectGridPositionObserverSubject : IObserverSubject&lt;Vector3Int&gt;" style="text;align=left;verticalAlign=top;spacingLeft=4;spacingRight=4;overflow=hidden;rotatable=0;points=[[0,0.5],[1,0.5]];portConstraint=eastwest;" vertex="1" parent="on6lecFwRkimcn54lQR8-428">
          <mxGeometry y="90" width="600" height="30" as="geometry" />
        </mxCell>
        <mxCell id="on6lecFwRkimcn54lQR8-432" value="- floorCollisionPositionObserverSubject : IObserverSubject&lt;float&gt;" style="text;align=left;verticalAlign=top;spacingLeft=4;spacingRight=4;overflow=hidden;rotatable=0;points=[[0,0.5],[1,0.5]];portConstraint=eastwest;" vertex="1" parent="on6lecFwRkimcn54lQR8-428">
          <mxGeometry y="120" width="600" height="30" as="geometry" />
        </mxCell>
        <mxCell id="on6lecFwRkimcn54lQR8-433" value="" style="line;html=1;strokeWidth=1;align=left;verticalAlign=middle;spacingTop=-1;spacingLeft=3;spacingRight=3;rotatable=0;labelPosition=right;points=[];portConstraint=eastwest;" vertex="1" parent="on6lecFwRkimcn54lQR8-428">
          <mxGeometry y="150" width="600" height="8" as="geometry" />
        </mxCell>
        <mxCell id="on6lecFwRkimcn54lQR8-434" value="+ PreviewSystemData ()" style="text;align=left;verticalAlign=top;spacingLeft=4;spacingRight=4;overflow=hidden;rotatable=0;points=[[0,0.5],[1,0.5]];portConstraint=eastwest;" vertex="1" parent="on6lecFwRkimcn54lQR8-428">
          <mxGeometry y="158" width="600" height="30" as="geometry" />
        </mxCell>
        <mxCell id="on6lecFwRkimcn54lQR8-435" value="+ StructureObjectRotationTypeObserverSubject { get; } : IObserverSubject&lt;StructureObjectRotationType&gt;" style="text;align=left;verticalAlign=top;spacingLeft=4;spacingRight=4;overflow=hidden;rotatable=0;points=[[0,0.5],[1,0.5]];portConstraint=eastwest;" vertex="1" parent="on6lecFwRkimcn54lQR8-428">
          <mxGeometry y="188" width="600" height="30" as="geometry" />
        </mxCell>
        <mxCell id="on6lecFwRkimcn54lQR8-436" value="+ WorldEidtorObjectPlaceableObserverSubject { get; } : IObserverSubject&lt;bool&gt;" style="text;align=left;verticalAlign=top;spacingLeft=4;spacingRight=4;overflow=hidden;rotatable=0;points=[[0,0.5],[1,0.5]];portConstraint=eastwest;" vertex="1" parent="on6lecFwRkimcn54lQR8-428">
          <mxGeometry y="218" width="600" height="30" as="geometry" />
        </mxCell>
        <mxCell id="on6lecFwRkimcn54lQR8-437" value="+ PreviewObjectGridPositionObserverSubject { get; } : IObserverSubject&lt;Vector3Int&gt;" style="text;align=left;verticalAlign=top;spacingLeft=4;spacingRight=4;overflow=hidden;rotatable=0;points=[[0,0.5],[1,0.5]];portConstraint=eastwest;" vertex="1" parent="on6lecFwRkimcn54lQR8-428">
          <mxGeometry y="248" width="600" height="30" as="geometry" />
        </mxCell>
        <mxCell id="on6lecFwRkimcn54lQR8-438" value="+ FloorCollisionPositionObserverSubject { get; } : IObserverSubject&lt;float&gt;" style="text;align=left;verticalAlign=top;spacingLeft=4;spacingRight=4;overflow=hidden;rotatable=0;points=[[0,0.5],[1,0.5]];portConstraint=eastwest;" vertex="1" parent="on6lecFwRkimcn54lQR8-428">
          <mxGeometry y="278" width="600" height="30" as="geometry" />
        </mxCell>
        <mxCell id="on6lecFwRkimcn54lQR8-439" value="PreviewSystemData" style="swimlane;fontStyle=3;align=center;verticalAlign=top;childLayout=stackLayout;horizontal=1;startSize=30;horizontalStack=0;resizeParent=1;resizeLast=0;collapsible=1;marginBottom=0;rounded=0;shadow=0;strokeWidth=1;" vertex="1" parent="on6lecFwRkimcn54lQR8-449">
          <mxGeometry x="440" y="40" width="400" height="278" as="geometry">
            <mxRectangle x="230" y="140" width="160" height="26" as="alternateBounds" />
          </mxGeometry>
        </mxCell>
        <mxCell id="on6lecFwRkimcn54lQR8-440" value="- structureObjectRotationType : StructureObjectRotationType" style="text;align=left;verticalAlign=top;spacingLeft=4;spacingRight=4;overflow=hidden;rotatable=0;points=[[0,0.5],[1,0.5]];portConstraint=eastwest;" vertex="1" parent="on6lecFwRkimcn54lQR8-439">
          <mxGeometry y="30" width="400" height="30" as="geometry" />
        </mxCell>
        <mxCell id="on6lecFwRkimcn54lQR8-441" value="- previewObjectGridPosition : Vector3Int" style="text;align=left;verticalAlign=top;spacingLeft=4;spacingRight=4;overflow=hidden;rotatable=0;points=[[0,0.5],[1,0.5]];portConstraint=eastwest;" vertex="1" parent="on6lecFwRkimcn54lQR8-439">
          <mxGeometry y="60" width="400" height="30" as="geometry" />
        </mxCell>
        <mxCell id="on6lecFwRkimcn54lQR8-442" value="- floorCollisionPosition : float" style="text;align=left;verticalAlign=top;spacingLeft=4;spacingRight=4;overflow=hidden;rotatable=0;points=[[0,0.5],[1,0.5]];portConstraint=eastwest;" vertex="1" parent="on6lecFwRkimcn54lQR8-439">
          <mxGeometry y="90" width="400" height="30" as="geometry" />
        </mxCell>
        <mxCell id="on6lecFwRkimcn54lQR8-443" value="- worldEidtorObjectPlaceable : bool" style="text;align=left;verticalAlign=top;spacingLeft=4;spacingRight=4;overflow=hidden;rotatable=0;points=[[0,0.5],[1,0.5]];portConstraint=eastwest;" vertex="1" parent="on6lecFwRkimcn54lQR8-439">
          <mxGeometry y="120" width="400" height="30" as="geometry" />
        </mxCell>
        <mxCell id="on6lecFwRkimcn54lQR8-444" value="" style="line;html=1;strokeWidth=1;align=left;verticalAlign=middle;spacingTop=-1;spacingLeft=3;spacingRight=3;rotatable=0;labelPosition=right;points=[];portConstraint=eastwest;" vertex="1" parent="on6lecFwRkimcn54lQR8-439">
          <mxGeometry y="150" width="400" height="8" as="geometry" />
        </mxCell>
        <mxCell id="on6lecFwRkimcn54lQR8-445" value="+ StructureObjectRotationType { get; set; } : StructureObjectRotationType" style="text;align=left;verticalAlign=top;spacingLeft=4;spacingRight=4;overflow=hidden;rotatable=0;points=[[0,0.5],[1,0.5]];portConstraint=eastwest;" vertex="1" parent="on6lecFwRkimcn54lQR8-439">
          <mxGeometry y="158" width="400" height="30" as="geometry" />
        </mxCell>
        <mxCell id="on6lecFwRkimcn54lQR8-446" value="+ PreviewObjectGridPosition { get; set; } : Vector3Int" style="text;align=left;verticalAlign=top;spacingLeft=4;spacingRight=4;overflow=hidden;rotatable=0;points=[[0,0.5],[1,0.5]];portConstraint=eastwest;" vertex="1" parent="on6lecFwRkimcn54lQR8-439">
          <mxGeometry y="188" width="400" height="30" as="geometry" />
        </mxCell>
        <mxCell id="on6lecFwRkimcn54lQR8-447" value="+ WorldEidtorObjectPlaceable { get; set; } : bool" style="text;align=left;verticalAlign=top;spacingLeft=4;spacingRight=4;overflow=hidden;rotatable=0;points=[[0,0.5],[1,0.5]];portConstraint=eastwest;" vertex="1" parent="on6lecFwRkimcn54lQR8-439">
          <mxGeometry y="218" width="400" height="30" as="geometry" />
        </mxCell>
        <mxCell id="on6lecFwRkimcn54lQR8-448" value="+ FloorCollisionPosition { get; set; } : float" style="text;align=left;verticalAlign=top;spacingLeft=4;spacingRight=4;overflow=hidden;rotatable=0;points=[[0,0.5],[1,0.5]];portConstraint=eastwest;" vertex="1" parent="on6lecFwRkimcn54lQR8-439">
          <mxGeometry y="248" width="400" height="30" as="geometry" />
        </mxCell>
        <mxCell id="on6lecFwRkimcn54lQR8-457" style="edgeStyle=orthogonalEdgeStyle;rounded=0;orthogonalLoop=1;jettySize=auto;html=1;endArrow=diamondThin;endFill=1;" edge="1" parent="1" source="on6lecFwRkimcn54lQR8-451" target="on6lecFwRkimcn54lQR8-428">
          <mxGeometry relative="1" as="geometry" />
        </mxCell>
        <mxCell id="on6lecFwRkimcn54lQR8-451" value="IObserverSubject&amp;lt;ObserverDataType&amp;gt;" style="swimlane;fontStyle=1;align=center;verticalAlign=middle;childLayout=stackLayout;horizontal=1;startSize=30;horizontalStack=0;resizeParent=1;resizeParentMax=0;resizeLast=0;collapsible=1;marginBottom=0;whiteSpace=wrap;html=1;" vertex="1" parent="1">
          <mxGeometry x="1060" y="360" width="400" height="180" as="geometry" />
        </mxCell>
        <mxCell id="on6lecFwRkimcn54lQR8-452" value="+ RegisterObserver(&amp;nbsp;subscriber : IObserverSubscriber)&amp;nbsp;:&amp;nbsp;void" style="text;strokeColor=none;fillColor=none;align=left;verticalAlign=middle;spacingLeft=4;spacingRight=4;overflow=hidden;rotatable=0;points=[[0,0.5],[1,0.5]];portConstraint=eastwest;whiteSpace=wrap;html=1;" vertex="1" parent="on6lecFwRkimcn54lQR8-451">
          <mxGeometry y="30" width="400" height="30" as="geometry" />
        </mxCell>
        <mxCell id="on6lecFwRkimcn54lQR8-453" value="+ RemoveObserver(&amp;nbsp;subscriber : IObserverSubscriber)&amp;nbsp;:&amp;nbsp;void" style="text;strokeColor=none;fillColor=none;align=left;verticalAlign=middle;spacingLeft=4;spacingRight=4;overflow=hidden;rotatable=0;points=[[0,0.5],[1,0.5]];portConstraint=eastwest;whiteSpace=wrap;html=1;" vertex="1" parent="on6lecFwRkimcn54lQR8-451">
          <mxGeometry y="60" width="400" height="30" as="geometry" />
        </mxCell>
        <mxCell id="on6lecFwRkimcn54lQR8-454" value="+ NotifySubscribers( )&amp;nbsp;:&amp;nbsp;void" style="text;strokeColor=none;fillColor=none;align=left;verticalAlign=middle;spacingLeft=4;spacingRight=4;overflow=hidden;rotatable=0;points=[[0,0.5],[1,0.5]];portConstraint=eastwest;whiteSpace=wrap;html=1;" vertex="1" parent="on6lecFwRkimcn54lQR8-451">
          <mxGeometry y="90" width="400" height="30" as="geometry" />
        </mxCell>
        <mxCell id="on6lecFwRkimcn54lQR8-455" value="+ UpdateObserverData(&amp;nbsp;observerData : ObserverDataType )&amp;nbsp;:&amp;nbsp;void" style="text;strokeColor=none;fillColor=none;align=left;verticalAlign=middle;spacingLeft=4;spacingRight=4;overflow=hidden;rotatable=0;points=[[0,0.5],[1,0.5]];portConstraint=eastwest;whiteSpace=wrap;html=1;" vertex="1" parent="on6lecFwRkimcn54lQR8-451">
          <mxGeometry y="120" width="400" height="30" as="geometry" />
        </mxCell>
        <mxCell id="on6lecFwRkimcn54lQR8-456" value="+ GetObserverData( )&amp;nbsp;:&amp;nbsp;ObserverDataType" style="text;strokeColor=none;fillColor=none;align=left;verticalAlign=middle;spacingLeft=4;spacingRight=4;overflow=hidden;rotatable=0;points=[[0,0.5],[1,0.5]];portConstraint=eastwest;whiteSpace=wrap;html=1;" vertex="1" parent="on6lecFwRkimcn54lQR8-451">
          <mxGeometry y="150" width="400" height="30" as="geometry" />
        </mxCell>
        <mxCell id="on6lecFwRkimcn54lQR8-464" style="edgeStyle=orthogonalEdgeStyle;rounded=0;orthogonalLoop=1;jettySize=auto;html=1;dashed=1;endArrow=block;endFill=0;" edge="1" parent="1" source="on6lecFwRkimcn54lQR8-504" target="on6lecFwRkimcn54lQR8-451">
          <mxGeometry relative="1" as="geometry">
            <mxPoint x="1260" y="600" as="sourcePoint" />
            <Array as="points" />
          </mxGeometry>
        </mxCell>
        <mxCell id="on6lecFwRkimcn54lQR8-504" value="ObserverSubject&lt;ObserverDataType&gt;" style="swimlane;fontStyle=3;align=center;verticalAlign=top;childLayout=stackLayout;horizontal=1;startSize=30;horizontalStack=0;resizeParent=1;resizeLast=0;collapsible=1;marginBottom=0;rounded=0;shadow=0;strokeWidth=1;" vertex="1" parent="1">
          <mxGeometry x="1000" y="600" width="520" height="308" as="geometry">
            <mxRectangle x="230" y="140" width="160" height="26" as="alternateBounds" />
          </mxGeometry>
        </mxCell>
        <mxCell id="on6lecFwRkimcn54lQR8-505" value="- observerType : ObserverType" style="text;align=left;verticalAlign=top;spacingLeft=4;spacingRight=4;overflow=hidden;rotatable=0;points=[[0,0.5],[1,0.5]];portConstraint=eastwest;" vertex="1" parent="on6lecFwRkimcn54lQR8-504">
          <mxGeometry y="30" width="520" height="30" as="geometry" />
        </mxCell>
        <mxCell id="on6lecFwRkimcn54lQR8-506" value="- subscribers : List&lt;IObserverSubscriber&gt;" style="text;align=left;verticalAlign=top;spacingLeft=4;spacingRight=4;overflow=hidden;rotatable=0;points=[[0,0.5],[1,0.5]];portConstraint=eastwest;" vertex="1" parent="on6lecFwRkimcn54lQR8-504">
          <mxGeometry y="60" width="520" height="30" as="geometry" />
        </mxCell>
        <mxCell id="on6lecFwRkimcn54lQR8-507" value="- observerData : ObserverDataType" style="text;align=left;verticalAlign=top;spacingLeft=4;spacingRight=4;overflow=hidden;rotatable=0;points=[[0,0.5],[1,0.5]];portConstraint=eastwest;" vertex="1" parent="on6lecFwRkimcn54lQR8-504">
          <mxGeometry y="90" width="520" height="30" as="geometry" />
        </mxCell>
        <mxCell id="on6lecFwRkimcn54lQR8-509" value="" style="line;html=1;strokeWidth=1;align=left;verticalAlign=middle;spacingTop=-1;spacingLeft=3;spacingRight=3;rotatable=0;labelPosition=right;points=[];portConstraint=eastwest;" vertex="1" parent="on6lecFwRkimcn54lQR8-504">
          <mxGeometry y="120" width="520" height="8" as="geometry" />
        </mxCell>
        <mxCell id="on6lecFwRkimcn54lQR8-510" value="+ ObserverSubject ( observerType : ObserverType, observerData : ObserverDataType )" style="text;align=left;verticalAlign=top;spacingLeft=4;spacingRight=4;overflow=hidden;rotatable=0;points=[[0,0.5],[1,0.5]];portConstraint=eastwest;" vertex="1" parent="on6lecFwRkimcn54lQR8-504">
          <mxGeometry y="128" width="520" height="30" as="geometry" />
        </mxCell>
        <mxCell id="on6lecFwRkimcn54lQR8-459" value="+ RegisterObserver(&amp;nbsp;subscriber : IObserverSubscriber)&amp;nbsp;:&amp;nbsp;void" style="text;strokeColor=none;fillColor=none;align=left;verticalAlign=middle;spacingLeft=4;spacingRight=4;overflow=hidden;rotatable=0;points=[[0,0.5],[1,0.5]];portConstraint=eastwest;whiteSpace=wrap;html=1;" vertex="1" parent="on6lecFwRkimcn54lQR8-504">
          <mxGeometry y="158" width="520" height="30" as="geometry" />
        </mxCell>
        <mxCell id="on6lecFwRkimcn54lQR8-460" value="+ RemoveObserver(&amp;nbsp;subscriber : IObserverSubscriber)&amp;nbsp;:&amp;nbsp;void" style="text;strokeColor=none;fillColor=none;align=left;verticalAlign=middle;spacingLeft=4;spacingRight=4;overflow=hidden;rotatable=0;points=[[0,0.5],[1,0.5]];portConstraint=eastwest;whiteSpace=wrap;html=1;" vertex="1" parent="on6lecFwRkimcn54lQR8-504">
          <mxGeometry y="188" width="520" height="30" as="geometry" />
        </mxCell>
        <mxCell id="on6lecFwRkimcn54lQR8-461" value="+ NotifySubscribers( )&amp;nbsp;:&amp;nbsp;void" style="text;strokeColor=none;fillColor=none;align=left;verticalAlign=middle;spacingLeft=4;spacingRight=4;overflow=hidden;rotatable=0;points=[[0,0.5],[1,0.5]];portConstraint=eastwest;whiteSpace=wrap;html=1;" vertex="1" parent="on6lecFwRkimcn54lQR8-504">
          <mxGeometry y="218" width="520" height="30" as="geometry" />
        </mxCell>
        <mxCell id="on6lecFwRkimcn54lQR8-462" value="+ UpdateObserverData(&amp;nbsp;observerData : ObserverDataType )&amp;nbsp;:&amp;nbsp;void" style="text;strokeColor=none;fillColor=none;align=left;verticalAlign=middle;spacingLeft=4;spacingRight=4;overflow=hidden;rotatable=0;points=[[0,0.5],[1,0.5]];portConstraint=eastwest;whiteSpace=wrap;html=1;" vertex="1" parent="on6lecFwRkimcn54lQR8-504">
          <mxGeometry y="248" width="520" height="30" as="geometry" />
        </mxCell>
        <mxCell id="on6lecFwRkimcn54lQR8-463" value="+ GetObserverData( )&amp;nbsp;:&amp;nbsp;ObserverDataType" style="text;strokeColor=none;fillColor=none;align=left;verticalAlign=middle;spacingLeft=4;spacingRight=4;overflow=hidden;rotatable=0;points=[[0,0.5],[1,0.5]];portConstraint=eastwest;whiteSpace=wrap;html=1;" vertex="1" parent="on6lecFwRkimcn54lQR8-504">
          <mxGeometry y="278" width="520" height="30" as="geometry" />
        </mxCell>
        <mxCell id="on6lecFwRkimcn54lQR8-517" style="edgeStyle=orthogonalEdgeStyle;rounded=0;orthogonalLoop=1;jettySize=auto;html=1;endArrow=diamondThin;endFill=1;" edge="1" parent="1" source="on6lecFwRkimcn54lQR8-515" target="on6lecFwRkimcn54lQR8-504">
          <mxGeometry relative="1" as="geometry">
            <Array as="points">
              <mxPoint x="1670" y="750" />
              <mxPoint x="1670" y="750" />
            </Array>
          </mxGeometry>
        </mxCell>
        <mxCell id="on6lecFwRkimcn54lQR8-515" value="IObserverSubscriber" style="swimlane;fontStyle=3;align=center;verticalAlign=top;childLayout=stackLayout;horizontal=1;startSize=30;horizontalStack=0;resizeParent=1;resizeLast=0;collapsible=1;marginBottom=0;rounded=0;shadow=0;strokeWidth=1;" vertex="1" parent="1">
          <mxGeometry x="1590" y="724" width="340" height="60" as="geometry">
            <mxRectangle x="230" y="140" width="160" height="26" as="alternateBounds" />
          </mxGeometry>
        </mxCell>
        <mxCell id="on6lecFwRkimcn54lQR8-516" value="+ UpdateObserverData (observerType : ObserverType) : void" style="text;align=left;verticalAlign=middle;spacingLeft=4;spacingRight=4;overflow=hidden;rotatable=0;points=[[0,0.5],[1,0.5]];portConstraint=eastwest;" vertex="1" parent="on6lecFwRkimcn54lQR8-515">
          <mxGeometry y="30" width="340" height="30" as="geometry" />
        </mxCell>
        <mxCell id="on6lecFwRkimcn54lQR8-542" value="MonoBehaviour" style="swimlane;fontStyle=2;align=center;verticalAlign=top;childLayout=stackLayout;horizontal=1;startSize=30;horizontalStack=0;resizeParent=1;resizeLast=0;collapsible=1;marginBottom=0;rounded=0;shadow=0;strokeWidth=1;" vertex="1" parent="1">
          <mxGeometry x="1840" y="-540" width="160" height="40" as="geometry">
            <mxRectangle x="230" y="140" width="160" height="26" as="alternateBounds" />
          </mxGeometry>
        </mxCell>
        <mxCell id="on6lecFwRkimcn54lQR8-544" style="edgeStyle=orthogonalEdgeStyle;rounded=0;orthogonalLoop=1;jettySize=auto;html=1;dashed=1;endArrow=block;endFill=0;" edge="1" parent="1" source="on6lecFwRkimcn54lQR8-543" target="on6lecFwRkimcn54lQR8-542">
          <mxGeometry relative="1" as="geometry">
            <Array as="points">
              <mxPoint x="1920" y="-480" />
              <mxPoint x="1920" y="-480" />
            </Array>
          </mxGeometry>
        </mxCell>
        <mxCell id="on6lecFwRkimcn54lQR8-545" style="edgeStyle=orthogonalEdgeStyle;rounded=0;orthogonalLoop=1;jettySize=auto;html=1;endArrow=block;endFill=0;startArrow=none;startFill=0;dashed=1;" edge="1" parent="1" source="on6lecFwRkimcn54lQR8-543" target="on6lecFwRkimcn54lQR8-515">
          <mxGeometry relative="1" as="geometry">
            <Array as="points">
              <mxPoint x="2280" y="754" />
            </Array>
          </mxGeometry>
        </mxCell>
        <mxCell id="on6lecFwRkimcn54lQR8-546" style="edgeStyle=orthogonalEdgeStyle;rounded=0;orthogonalLoop=1;jettySize=auto;html=1;endArrow=diamondThin;endFill=1;" edge="1" parent="1" source="on6lecFwRkimcn54lQR8-543" target="on6lecFwRkimcn54lQR8-427">
          <mxGeometry relative="1" as="geometry" />
        </mxCell>
        <mxCell id="on6lecFwRkimcn54lQR8-547" style="edgeStyle=orthogonalEdgeStyle;rounded=0;orthogonalLoop=1;jettySize=auto;html=1;endArrow=none;endFill=0;startArrow=diamondThin;startFill=1;" edge="1" parent="1" source="on6lecFwRkimcn54lQR8-543" target="on6lecFwRkimcn54lQR8-344">
          <mxGeometry relative="1" as="geometry" />
        </mxCell>
        <mxCell id="on6lecFwRkimcn54lQR8-543" value="&lt;b&gt;&lt;font style=&quot;font-size: 25px;&quot;&gt;데이터 사용처(View)&lt;/font&gt;&lt;/b&gt;" style="shape=umlFrame;whiteSpace=wrap;html=1;pointerEvents=0;width=280;height=80;" vertex="1" parent="1">
          <mxGeometry x="1800" y="-460" width="920" height="840" as="geometry" />
        </mxCell>
        <mxCell id="on6lecFwRkimcn54lQR8-550" value="" style="group" connectable="0" vertex="1" parent="1">
          <mxGeometry x="-240" y="-260" width="600" height="440" as="geometry" />
        </mxCell>
        <mxCell id="on6lecFwRkimcn54lQR8-276" value="FloorCollisionPositionControllerAndModel" style="swimlane;fontStyle=3;align=center;verticalAlign=middle;childLayout=stackLayout;horizontal=1;startSize=30;horizontalStack=0;resizeParent=1;resizeLast=0;collapsible=1;marginBottom=0;rounded=0;shadow=0;strokeWidth=1;" vertex="1" parent="on6lecFwRkimcn54lQR8-550">
          <mxGeometry x="40" y="120" width="520" height="280" as="geometry">
            <mxRectangle x="230" y="140" width="160" height="26" as="alternateBounds" />
          </mxGeometry>
        </mxCell>
        <mxCell id="on6lecFwRkimcn54lQR8-551" value="- previewSystemData : PreviewSystemData" style="text;align=left;verticalAlign=middle;spacingLeft=4;spacingRight=4;overflow=hidden;rotatable=0;points=[[0,0.5],[1,0.5]];portConstraint=eastwest;" vertex="1" parent="on6lecFwRkimcn54lQR8-276">
          <mxGeometry y="30" width="520" height="30" as="geometry" />
        </mxCell>
        <mxCell id="on6lecFwRkimcn54lQR8-280" value="- currentFloor : float" style="text;align=left;verticalAlign=top;spacingLeft=4;spacingRight=4;overflow=hidden;rotatable=0;points=[[0,0.5],[1,0.5]];portConstraint=eastwest;" vertex="1" parent="on6lecFwRkimcn54lQR8-276">
          <mxGeometry y="60" width="520" height="30" as="geometry" />
        </mxCell>
        <mxCell id="on6lecFwRkimcn54lQR8-281" value="- nextFloor : float" style="text;align=left;verticalAlign=top;spacingLeft=4;spacingRight=4;overflow=hidden;rotatable=0;points=[[0,0.5],[1,0.5]];portConstraint=eastwest;" vertex="1" parent="on6lecFwRkimcn54lQR8-276">
          <mxGeometry y="90" width="520" height="30" as="geometry" />
        </mxCell>
        <mxCell id="on6lecFwRkimcn54lQR8-278" value="- [SerializeField] moveCurve : AnimationCurve" style="text;align=left;verticalAlign=middle;spacingLeft=4;spacingRight=4;overflow=hidden;rotatable=0;points=[[0,0.5],[1,0.5]];portConstraint=eastwest;" vertex="1" parent="on6lecFwRkimcn54lQR8-276">
          <mxGeometry y="120" width="520" height="30" as="geometry" />
        </mxCell>
        <mxCell id="on6lecFwRkimcn54lQR8-279" value="- [SerializeField] duration : float" style="text;align=left;verticalAlign=middle;spacingLeft=4;spacingRight=4;overflow=hidden;rotatable=0;points=[[0,0.5],[1,0.5]];portConstraint=eastwest;" vertex="1" parent="on6lecFwRkimcn54lQR8-276">
          <mxGeometry y="150" width="520" height="30" as="geometry" />
        </mxCell>
        <mxCell id="on6lecFwRkimcn54lQR8-282" value="" style="line;html=1;strokeWidth=1;align=left;verticalAlign=middle;spacingTop=-1;spacingLeft=3;spacingRight=3;rotatable=0;labelPosition=right;points=[];portConstraint=eastwest;" vertex="1" parent="on6lecFwRkimcn54lQR8-276">
          <mxGeometry y="180" width="520" height="10" as="geometry" />
        </mxCell>
        <mxCell id="on6lecFwRkimcn54lQR8-410" value="- Awake( ) : void" style="text;align=left;verticalAlign=middle;spacingLeft=4;spacingRight=4;overflow=hidden;rotatable=0;points=[[0,0.5],[1,0.5]];portConstraint=eastwest;" vertex="1" parent="on6lecFwRkimcn54lQR8-276">
          <mxGeometry y="190" width="520" height="30" as="geometry" />
        </mxCell>
        <mxCell id="on6lecFwRkimcn54lQR8-283" value="+ ChangeCollisionFloorLayer (floor : float) : void" style="text;align=left;verticalAlign=middle;spacingLeft=4;spacingRight=4;overflow=hidden;rotatable=0;points=[[0,0.5],[1,0.5]];portConstraint=eastwest;" vertex="1" parent="on6lecFwRkimcn54lQR8-276">
          <mxGeometry y="220" width="520" height="30" as="geometry" />
        </mxCell>
        <mxCell id="on6lecFwRkimcn54lQR8-284" value="- MoveCollisionFloor () : IEnumerator" style="text;align=left;verticalAlign=middle;spacingLeft=4;spacingRight=4;overflow=hidden;rotatable=0;points=[[0,0.5],[1,0.5]];portConstraint=eastwest;" vertex="1" parent="on6lecFwRkimcn54lQR8-276">
          <mxGeometry y="250" width="520" height="30" as="geometry" />
        </mxCell>
        <mxCell id="on6lecFwRkimcn54lQR8-548" value="&lt;b style=&quot;font-size: 25px;&quot;&gt;데이터 가공 시작 &amp;amp;&amp;nbsp;&lt;/b&gt;&lt;font size=&quot;1&quot; style=&quot;&quot;&gt;&lt;b style=&quot;font-size: 25px;&quot;&gt;데이터 가공&lt;/b&gt;&lt;/font&gt;&lt;div&gt;&lt;font size=&quot;1&quot; style=&quot;&quot;&gt;&lt;b style=&quot;font-size: 25px;&quot;&gt;(Controller &amp;amp; Model)&lt;/b&gt;&lt;/font&gt;&lt;/div&gt;" style="shape=umlFrame;whiteSpace=wrap;html=1;pointerEvents=0;width=600;height=80;" vertex="1" parent="on6lecFwRkimcn54lQR8-550">
          <mxGeometry width="600" height="440" as="geometry" />
        </mxCell>
      </root>
    </mxGraphModel>
  </diagram>
</mxfile>
